<?xml version="1.0" encoding="utf-8"?>
<!-- Generator: Adobe Illustrator 17.0.0, SVG Export Plug-In . SVG Version: 6.00 Build 0)  -->
<!DOCTYPE svg PUBLIC "-//W3C//DTD SVG 1.1//EN" "http://www.w3.org/Graphics/SVG/1.1/DTD/svg11.dtd">
<svg version="1.1" id="Layer_1" xmlns="http://www.w3.org/2000/svg" xmlns:xlink="http://www.w3.org/1999/xlink" x="0px" y="0px"
	 width="1242px" height="1242px" viewBox="0 0 1242 1242" enable-background="new 0 0 1242 1242" xml:space="preserve">
<path fill="#FFFFFF" d="M509.75,651.758c0-20.003,0-40.006,0-60.008c33.765,0,67.531,0,101.296,0c0,20.003,0,40.006,0,60.008
	C577.281,651.758,543.516,651.758,509.75,651.758z M590.621,634.696c7.464,0.075,13.397-5.688,13.475-13.088
	c0.073-6.867-5.876-12.78-12.901-12.823c-7.555-0.046-13.257,5.351-13.35,12.637C577.75,628.82,583.335,634.623,590.621,634.696z
	 M542.215,621.775c0-3.115-0.025-6.231,0.01-9.346c0.02-1.78-0.596-2.861-2.565-2.856c-1.841,0.005-2.834,0.892-2.843,2.699
	c-0.032,6.354-0.032,12.709,0.008,19.064c0.011,1.815,1.01,2.635,2.871,2.634c2.023-0.002,2.55-1.088,2.53-2.849
	C542.189,628.006,542.215,624.891,542.215,621.775z M534.785,612.173c0.361-1.361-0.183-2.652-2.275-2.988
	c-1.761-0.283-2.639,0.435-3.119,2.824c-0.342,1.706-0.493,3.45-0.725,5.178c-0.597,4.443-1.272,8.878-1.752,13.333
	c-0.22,2.047,0.861,3.141,2.721,3.223c1.729,0.077,2.452-0.95,2.656-2.503C533.101,625.068,533.906,618.894,534.785,612.173z
	 M552.562,631.429c-0.244-1.791-0.437-3.274-0.649-4.753c-0.742-5.181-1.489-10.362-2.239-15.542
	c-0.219-1.513-1.141-2.227-2.612-1.954c-1.383,0.257-2.777,0.712-2.528,2.601c0.88,6.673,1.758,13.346,2.693,20.011
	c0.208,1.481,1.271,2.139,2.715,1.912C551.377,633.48,552.621,632.922,552.562,631.429z M572.08,634.099
	c1.134,0.264,2.534-0.117,2.867-2.254c0.27-1.73-0.493-2.748-2.845-3.127c-4.421-0.713-8.865-1.305-13.317-1.787
	c-2.042-0.221-3.155,0.854-3.247,2.71c-0.085,1.716,0.93,2.464,2.49,2.664C562.472,632.876,566.917,633.441,572.08,634.099z
	 M558.913,616.473c4.258-0.624,9.061-1.334,13.865-2.031c1.686-0.245,2.427-1.248,2.136-2.87c-0.265-1.479-1-2.532-2.799-2.288
	c-4.813,0.654-9.634,1.243-14.445,1.907c-1.661,0.229-2.384,1.298-2.054,2.931C555.909,615.573,556.575,616.73,558.913,616.473z
	 M565.633,624.203c2.363,0,4.726-0.008,7.089,0.003c1.707,0.007,2.468-0.843,2.477-2.531c0.009-1.61-0.632-2.773-2.295-2.802
	c-4.847-0.085-9.698-0.085-14.545,0c-1.663,0.029-2.303,1.192-2.294,2.802c0.01,1.688,0.771,2.538,2.478,2.53
	C560.907,624.195,563.27,624.203,565.633,624.203z"/>
<path d="M590.621,634.696c-7.286-0.073-12.871-5.875-12.776-13.274c0.093-7.286,5.795-12.684,13.35-12.637
	c7.025,0.043,12.974,5.956,12.901,12.823C604.017,629.008,598.085,634.77,590.621,634.696z M590.911,629.146
	c4.455-0.021,7.365-3.026,7.346-7.586c-0.019-4.414-3.11-7.371-7.613-7.282c-4.257,0.084-7.275,3.136-7.258,7.338
	C583.403,625.951,586.616,629.166,590.911,629.146z"/>
<path d="M529.544,656.014c0.825-3.203,1.613-6.416,2.49-9.604c0.44-1.601,0.445-3.829,2.761-3.812
	c2.415,0.018,2.109,2.289,2.511,3.887c0.787,3.122,1.587,6.24,2.973,9.482c0.925-3.059,1.832-6.124,2.785-9.175
	c0.341-1.093,0.6-2.299,1.264-3.175c0.428-0.565,1.53-0.822,2.318-0.799c0.276,0.008,0.889,1.386,0.713,1.934
	c-1.625,5.045-3.32,10.072-5.194,15.029c-0.254,0.672-1.562,1.126-2.461,1.328c-1.153,0.258-1.936-0.409-2.264-1.605
	c-0.912-3.331-1.864-6.65-2.862-10.195c-0.909,3.25-1.762,6.309-2.62,9.366c-0.392,1.396-0.882,2.547-2.734,2.53
	c-1.76-0.016-2.394-0.996-2.876-2.42c-1.368-4.041-2.798-8.06-4.183-12.096c-0.223-0.65-0.595-1.402-0.442-1.988
	c0.2-0.767,0.765-1.879,1.338-1.99c0.615-0.119,1.823,0.59,2.072,1.216c0.89,2.242,1.478,4.604,2.191,6.918
	c0.53,1.719,1.075,3.433,1.614,5.149C529.139,656.001,529.341,656.008,529.544,656.014z"/>
<path d="M557.731,652.301c-1.349-2.835-3.382-2.337-5.271-2.306c-1,0.017-2.513,1.308-2.873-0.521
	c-0.364-1.851,1.414-2.145,2.733-2.397c5.063-0.967,8.275,1.427,8.83,6.577c0.16,1.486,0.127,3,0.089,4.498
	c-0.067,2.675-0.316,3.184-2.848,3.374c-2.375,0.178-4.85,0.086-7.173-0.399c-2.286-0.477-3.309-2.279-3.157-4.333
	c0.152-2.058,1.458-3.607,3.621-4.103c0.888-0.204,1.833-0.166,2.754-0.223C555.345,652.412,556.256,652.374,557.731,652.301z
	 M554.885,654.91c-2.308,0.016-3.287,0.659-3.139,2.137c0.197,1.96,1.751,1.797,3.094,1.839c1.397,0.043,2.773,0.097,2.802-1.997
	C557.671,654.751,556.286,654.893,554.885,654.91z"/>
<path d="M582.963,656.49c0.779,1.792,1.977,2.259,3.415,2.217c1.023-0.03,2.047-0.36,3.057-0.309
	c0.547,0.028,1.387,0.48,1.513,0.911c0.13,0.442-0.3,1.322-0.744,1.612c-2.434,1.586-7.237,0.897-9.335-1.23
	c-2.207-2.237-2.521-6.843-0.656-9.638c1.823-2.733,5.443-3.963,8.529-2.659c1.094,0.463,2.225,1.334,2.847,2.327
	c1.847,2.95,0.417,5.79-3.033,6.305c-0.903,0.135-1.837,0.04-2.753,0.11C584.944,656.202,584.091,656.346,582.963,656.49z
	 M582.584,653.258c1.609,0,2.872,0.141,4.081-0.052c0.745-0.119,1.859-0.619,2.019-1.175c0.393-1.366-0.733-2.019-1.898-2.334
	C585.082,649.236,583.797,650.265,582.584,653.258z"/>
<path d="M542.215,621.775c0,3.115-0.026,6.231,0.01,9.346c0.021,1.76-0.507,2.847-2.53,2.849c-1.861,0.002-2.86-0.818-2.871-2.634
	c-0.04-6.354-0.039-12.709-0.008-19.064c0.009-1.808,1.002-2.695,2.843-2.699c1.969-0.005,2.585,1.076,2.565,2.856
	C542.19,615.544,542.215,618.66,542.215,621.775z"/>
<path d="M534.785,612.173c-0.879,6.721-1.685,12.895-2.494,19.068c-0.204,1.552-0.927,2.58-2.656,2.503
	c-1.86-0.082-2.942-1.177-2.721-3.223c0.479-4.456,1.155-8.89,1.752-13.333c0.232-1.728,0.383-3.472,0.725-5.178
	c0.48-2.389,1.358-3.107,3.119-2.824C534.603,609.521,535.146,610.812,534.785,612.173z"/>
<path d="M552.562,631.429c0.059,1.492-1.185,2.051-2.619,2.276c-1.444,0.227-2.507-0.431-2.715-1.912
	c-0.936-6.665-1.814-13.339-2.693-20.011c-0.249-1.889,1.145-2.344,2.528-2.601c1.471-0.273,2.393,0.442,2.612,1.954
	c0.75,5.18,1.497,10.36,2.239,15.542C552.126,628.156,552.318,629.638,552.562,631.429z"/>
<path d="M603.176,658.601c0.026,0.018,0.666,0.452,1.306,0.887c-0.55,0.614-0.983,1.502-1.669,1.794
	c-3.04,1.293-5.937-0.175-6.619-3.404c-0.329-1.556-0.207-3.208-0.272-4.817c-0.051-1.246,0.21-2.617-1.402-3.173
	c-0.101-0.035-0.251-0.133-0.256-0.209c-0.042-0.622-0.165-1.771-0.062-1.792c2.469-0.516,0.84-4.758,4.039-4.429
	c0.425,0.044,1.132,0.705,1.123,1.065c-0.053,2.177,1.267,2.609,3.036,2.895c0.59,0.096,1.047,1.018,1.565,1.563
	c-0.629,0.369-1.281,1.085-1.883,1.045c-2.342-0.155-2.712,1.109-2.559,3c0.083,1.032-0.03,2.079,0.032,3.113
	C599.692,658.418,599.952,658.632,603.176,658.601z"/>
<path d="M572.08,634.099c-5.163-0.659-9.608-1.223-14.052-1.794c-1.559-0.2-2.574-0.949-2.49-2.664
	c0.092-1.856,1.205-2.931,3.247-2.71c4.452,0.481,8.897,1.073,13.317,1.787c2.352,0.379,3.115,1.398,2.845,3.127
	C574.614,633.982,573.214,634.364,572.08,634.099z"/>
<path d="M558.913,616.473c-2.338,0.256-3.004-0.9-3.297-2.35c-0.33-1.633,0.393-2.702,2.054-2.931
	c4.811-0.664,9.633-1.253,14.445-1.907c1.799-0.244,2.534,0.809,2.799,2.288c0.29,1.621-0.45,2.625-2.136,2.87
	C567.974,615.14,563.171,615.849,558.913,616.473z"/>
<path d="M565.633,624.203c-2.363,0-4.726-0.008-7.089,0.003c-1.707,0.008-2.468-0.842-2.478-2.53
	c-0.009-1.61,0.631-2.773,2.294-2.802c4.847-0.085,9.698-0.085,14.545,0c1.663,0.029,2.304,1.192,2.295,2.802
	c-0.009,1.688-0.77,2.538-2.477,2.531C570.359,624.195,567.996,624.203,565.633,624.203z"/>
<path d="M575.88,651.466c0,2.535,0.014,5.071-0.006,7.606c-0.009,1.156-0.401,2.038-1.77,2.049c-1.36,0.012-1.804-0.834-1.808-2.007
	c-0.018-5.186-0.025-10.372-0.007-15.557c0.005-1.275,0.434-2.337,1.969-2.258c1.361,0.07,1.62,1.097,1.625,2.215
	c0.013,2.651,0.004,5.301,0.004,7.952C575.884,651.466,575.882,651.466,575.88,651.466z"/>
<path d="M568.319,651.241c0,2.644,0.006,5.289-0.003,7.933c-0.004,1.206-0.53,2.172-1.812,1.872
	c-0.666-0.156-1.622-1.088-1.636-1.69c-0.128-5.284-0.109-10.573-0.045-15.86c0.015-1.204,0.488-2.339,2.06-2.171
	c1.413,0.15,1.442,1.269,1.449,2.328c0.015,2.529,0.005,5.059,0.005,7.588C568.331,651.241,568.325,651.241,568.319,651.241z"/>
<path fill="#FFFFFF" d="M590.911,629.146c-4.295,0.02-7.508-3.195-7.525-7.53c-0.017-4.202,3.001-7.254,7.258-7.338
	c4.502-0.089,7.594,2.868,7.613,7.282C598.277,626.12,595.366,629.125,590.911,629.146z"/>
<path fill="#FFFFFF" d="M696.351,623.145c1.312-3.24,2.704-4.354,4.548-3.855c1.26,0.341,2.48,1.048,2.054,2.526
	c-0.173,0.602-1.379,1.143-2.186,1.272C699.459,623.298,698.093,623.145,696.351,623.145z"/>
</svg>
